<svg xmlns="http://www.w3.org/2000/svg" width="310" height="90" viewBox="0 0 82.021 23.812"><defs><linearGradient id="A" x1=".135" y1="45.069" x2="124.158" y2="45.069" gradientUnits="userSpaceOnUse"><stop offset="0" stop-color="#fd9245"/><stop offset="1" stop-color="#06a96b"/></linearGradient></defs><path d="M49.21 8.117h0 0q0 .575-.177 1.165h0 0q-.192.59-.531 1.136h0 0q-.354.531-.84 1.018h0 0q-.486.487-1.091.856h0 0q-.604.369-1.297.605h0 0q-.693.221-1.445.28h0 0q-.147.015-.28 0h0 0q-.133-.03-.251-.059h0 0q-.074-.03-.221-.089h0 0q-.147-.059-.192-.103h0 0q-.059-.059-.162-.177h0 0q-.103-.133-.162-.207h0 0q-.029-.059-.015-.162h0 0q0-.118 0-.28h0 0q0-.133 0-.295h0 0q-.015-.148.015-.177h0 0q.029-.015.103.044h0 0q.074.044.295.074h0 0q.088.03.206.015h0 0q.118-.015.221-.03h0 0q.354-.03.825-.207h0 0q.457-.162.943-.443h0 0q.501-.28.973-.664h0 0q.472-.384.84-.811h0 0q.368-.443.59-.915h0 0q.236-.487.236-.988h0 0q0-.384-.162-.738h0 0q-.147-.354-.472-.708h0 0q-.206-.236-.781-.369h0 0q-.59-.133-1.4-.133h0 0q-.693 0-1.489.118h0 0q-.796.103-1.592.369h0 0q-.663.221-1.15.384h0 0q-.472.162-.811.295h0 0q-.339.133-.545.221h0 0q-.221.089-.383.162h0 0q-.162.059-.295.118h0 0q-.133.059-.28.089h0 0q-.133.059-.221.059h0 0q-.074 0-.133 0h0 0q-.074-.015-.118-.044h0 0q-.029-.015-.074-.044h0 0q-.044-.03-.088-.03h0 0q-.044 0-.074.015h0 0q-.029.015-.074 0h0 0q-.044-.015-.088-.074h0 0q-.059-.103-.074-.177h0 0q-.029-.059-.029-.103h0 0q-.015-.044 0-.089h0 0q.015-.044.029-.103h0 0q.015-.059 0-.103h0 0q-.015-.059-.015-.103h0 0q0-.03.015-.074h0 0q.015-.059.074-.118h0 0q.147-.103.472-.339h0 0q.324-.236.796-.502h0 0q.486-.28 1.105-.575h0 0q.619-.295 1.341-.546h0 0q.737-.236 1.562-.413h0 0q.84-.162 1.739-.177h0 0q.914-.03 1.592.192h0 0q.693.221 1.209.575h0 0q.516.354.87.811h0 0q.339.472.56.929h0 0q.206.457.295.9h0 0q.088.428.103.738zm-6.913-1.342h0 0q-.015.044-.029.339h0 0q-.029.295-.074.752h0 0q-.029.457-.074 1.047h0 0q-.029.575-.074 1.21h0 0q-.044.649-.074 1.298h0 0q-.044.649-.044 1.239h0 0q-.029.605-.029 1.239h0 0q-.015.649-.015 1.298h0 0q0 .767.029 1.49h0 0q.044.738.133 1.431h0 0q.044.236-.029.354h0 0q-.074.133-.074.236h0 0q0 .03.029.059h0 0q.029.03.015.044h0 0q-.029.044-.103.044h0 0q-.088-.015-.147-.059h0 0q-.029-.03-.044-.074h0 0q-.015-.059-.044-.089h0 0q-.015-.03-.044-.03h0 0q-.029 0-.088.044h0 0q-.059.044-.118.148h0 0q-.074.089-.133.177h0 0q-.074.103-.147.177h0 0q-.074.074-.147.089h0 0q-.059.03-.133.044h0 0q-.088.03-.118-.059h0 0q-.015-.044-.029-.044h0 0q-.029-.015-.059-.03h0 0q-.029-.015-.059-.044h0 0q-.015-.03-.029-.103h0 0q-.044-.177-.118-.251h0 0q-.059-.089-.059-.207h0 0q-.029-.162-.103-.988h0 0q-.074-.811-.074-2.257h0 0q0-.575.015-1.254h0 0q.015-.664.074-1.431h0 0q.044-.679.118-1.46h0 0q.074-.782.147-1.534h0 0q.074-.767.133-1.416h0 0q.059-.664.088-1.077h0 0q.015-.074.044-.089h0 0q.044-.03.118-.03h0 0q.074-.015.177-.03h0 0q.118-.015.265-.074h0 0q.118-.059.295-.133h0 0q.162-.059.31-.089h0 0q.147-.03.236-.03h0 0q.103.015.088.118zm12.337 6.387h0 0q.015.339-.059.856h0 0q-.074.502-.162 1.092h0 0q-.088.575-.162 1.18h0 0q-.088.605-.088 1.136h0 0q0 .354.059.679h0 0q.044.31.162.546h0 0q.074.133.074.236h0 0q.015.103-.015.177h0 0q-.015.074-.029.133h0 0q-.029.044 0 .103h0 0q.015.044-.015.118h0 0q-.029.059-.088.118h0 0q-.059.059-.133.074h0 0q-.088.03-.147-.015h0 0q-.103-.059-.177-.074h0 0q-.059-.015-.103 0h0 0q-.044.015-.088.044h0 0q-.029.015-.074 0h0 0q-.177-.103-.383-.221h0 0q-.192-.118-.251-.266h0 0q-.044-.059-.088-.192h0 0q-.029-.148-.059-.339h0 0q-.015-.192-.044-.413h0 0q-.015-.221-.029-.428h0 0q-.324.62-.708 1.033h0 0q-.383.413-.752.664h0 0q-.383.251-.752.354h0 0q-.368.089-.663.089h0 0q-.324 0-.56-.074h0 0q-.236-.089-.368-.192h0 0q-.486-.502-.693-.797h0 0q-.206-.31-.192-.502h0 0q.059-.649.31-1.195h0 0q.265-.546.663-1.003h0 0q.398-.457.884-.826h0 0q.486-.369.988-.649h0 0q.516-.295 1.002-.487h0 0q.501-.207.899-.325h0 0q-.015-.546-.044-.944h0 0q-.029-.413-.074-.605h0 0q-.147-.62-.457-.929h0 0q-.324-.31-.766-.31h0 0q-.28 0-.56.207h0 0q-.295.221-.516.575h0 0q-.236.369-.383.841h0 0q-.147.472-.162 1.003h0 0q0 .133.015.251h0 0q.015.118.029.251h0 0q.015.074-.044.103h0 0q-.059.03-.133.044h0 0q-.088.015-.177.015h0 0q-.088.015-.147.03h0 0q-.059.03-.088.03h0 0q-.029.015-.059 0h0 0q-.029-.03-.074-.059h0 0q-.044-.044-.118-.103h0 0q-.088-.059-.177-.103h0 0q-.074-.044-.147-.074h0 0q-.059-.03-.103-.044h0 0q-.059-.03-.059-.074h0 0q0-.62.28-1.283h0 0q.28-.679.752-1.224h0 0q.472-.546 1.091-.9h0 0q.619-.354 1.312-.354h0 0q.56 0 .973.177h0 0q.413.162.708.443h0 0q.295.266.486.605h0 0q.177.325.28.664h0 0q.118.339.162.634h0 0q.044.31.044.502zm-1.813 2.788v-1.003h0q-.31.118-.663.295h0 0q-.368.177-.737.428h0 0q-.383.251-.752.575h0 0q-.368.325-.693.708h0 0q-.383.457-.56.811h0 0q-.162.354-.206.605h0 0q-.044.236.015.384h0 0q.059.133.147.177h0 0q.31.118.649.015h0 0q.339-.089.678-.339h0 0q.339-.251.649-.59h0 0q.324-.354.604-.723h0 0q.28-.369.501-.723h0 0q.221-.354.368-.62zm9.61 2.685h0 0q0 .118-.074.266h0 0q-.088.148-.251.148h0 0q-.088 0-.147-.059h0 0q-.044-.044-.088-.044h0 0q-.074 0-.147.044h0 0q-.059.059-.206.059h0 0q-.206 0-.354-.148h0 0q-.147-.148-.236-.369h0 0q-.088-.236-.133-.502h0 0q-.044-.266-.044-.502h0 0q0-.457.029-1.033h0 0q.029-.575.074-1.195h0 0q.059-.605.088-1.21h0 0q.029-.605.029-1.121h0 0q0-.679-.088-1.062h0 0q-.088-.384-.324-.384h0 0q-.221.03-.442.384h0 0q-.236.354-.486.9h0 0q-.236.546-.472 1.239h0 0q-.221.693-.442 1.416h0 0q-.221.723-.413 1.401h0 0q-.192.679-.339 1.21h0 0q-.147.531-.265.87h0 0q-.103.325-.147.325h0 0q-.088 0-.118-.044h0 0q-.044-.03-.074-.074h0 0q-.044-.03-.088-.074h0 0q-.059-.03-.147-.03h0 0q-.103 0-.133.015h0 0q-.029.015-.059.059h0 0q-.044.03-.103.044h0 0q-.059.015-.221.015h0 0q-.177 0-.354-.089h0 0q-.177-.089-.177-.28h0 0q0-.118.044-.502h0 0q.044-.369.088-.929h0 0q.059-.546.133-1.224h0 0q.059-.679.118-1.401h0 0q.059-.738.088-1.46h0 0q.044-.723.044-1.387h0 0q0-.31-.015-.59h0 0q0-.28 0-.531h0 0q0-.059.059-.059h0 0q.118 0 .177.044h0 0q.074.044.103.089h0 0q.029.059.029.103h0 0q.015.044.015.044h0 0q.029 0 .074-.03h0 0q.044-.044.088-.089h0 0q.044-.03.088-.074h0 0q.029-.03.059-.03h0 .103 0q.162 0 .221-.044h0 0q.059-.044.074-.103h0 0q.029-.059.044-.103h0 0q.015-.044.059-.044h0 0q.029 0 .088.044h0 0q.059.044.103.148h0 0q.059.118.103.28h0 0q.044.177.044.413h0 0q0 .325-.029.826h0 0q-.029.487-.059 1.047h0 0q-.044.561-.074 1.136h0 0q-.029.561-.029 1.033h0 0q.103-.443.265-.974h0 0q.147-.531.354-1.062h0 0q.206-.546.457-1.077h0 0q.236-.516.516-.915h0 0q.28-.398.604-.649h0 0q.31-.251.649-.251h0 0q.545 0 .884.207h0 0q.354.192.56.546h0 0q.192.354.28.826h0 0q.074.472.074 1.018h0 0q0 .472-.044.974h0 0q-.044.516-.088 1.018h0 0q-.044.516-.074 1.003h0 0q-.044.502-.044.929h0 0q0 .546.059.974h0 0q.059.428.059.649zm8.446-3.245h0 0q0 .103.015.251h0 0q.015.162.015.354h0 0q0 .236-.074.59h0 0q-.074.369-.221.752h0 0q-.162.398-.427.797h0 0q-.265.384-.649.693h0 0q-.383.325-.899.516h0 0q-.516.192-1.179.192h0 0q-.59 0-1.209-.221h0 0q-.634-.236-1.135-.708h0 0q-.516-.472-.84-1.224h0 0q-.324-.738-.324-1.77h0 0q0-.634.162-1.269h0 0q.177-.62.442-1.18h0 0q.28-.546.663-1.018h0 0q.368-.472.796-.811h0 0q.413-.339.87-.531h0 0q.442-.192.87-.192h0 0q.737 0 1.209.236h0 0q.486.236.766.575h0 0q.28.339.398.723h0 0q.118.398.118.708h0 0q0 .31-.147.693h0 0q-.147.384-.486.738h0 0q-.324.339-.87.575h0 0q-.531.236-1.297.236h0 0q-.413 0-.752-.103h0 0q-.324-.118-.575-.295h0 0q-.251-.177-.427-.384h0 0q-.177-.207-.295-.398h0 0q-.192.634-.192 1.475h0 0q0 .575.177 1.033h0 0q.162.457.457.782h0 0q.295.325.693.487h0 0q.398.177.884.177h0 0q.604 0 1.061-.207h0 0q.457-.207.796-.516h0 0q.339-.325.575-.693h0 0q.251-.369.427-.664h0 0q.192-.31.324-.516h0 0q.133-.207.265-.192h0 0q.059 0 .059.103h0 0q0 .044-.015.103h0 0q0 .044-.029.103zm-3.022-3.761h0 0q-.192 0-.472.074h0 0q-.295.089-.604.28h0 0q-.324.192-.634.516h0 0q-.31.325-.545.826h0 0q.147-.074.251-.118h0 0q.103-.044.147-.044h0 0q.015 0 .059.03h0 0q.236.398.575.561h0 0q.354.162.781.162h0 0q.339 0 .59-.103h0 0q.251-.118.413-.31h0 0q.162-.177.236-.398h0 0q.059-.207.059-.428h0 0q0-.443-.221-.752h0 0q-.236-.295-.634-.295zm6.382-6.018h0 0q0 .133-.015.546h0 0q-.029.413-.059.988h0 0q-.029.59-.059 1.283h0 0q-.044.679-.074 1.372h0 0q-.044.693-.074 1.342h0 0q-.029.649-.044 1.121h0 0q-.015.295-.029.649h0 0q0 .354 0 .752h0 0q0 .546 0 1.121h0 0q.015.575.015 1.151h0 0q.015.561.029 1.077h0 0q.015.516.029.929h0 0q.015.413.015.693h0 0q0 .28 0 .354h0 0q0 .133-.044.207h0 0q-.044.074-.103.103h0 0q-.074.03-.147.015h0 0q-.059-.015-.118-.044h0 0q-.059-.03-.088-.074h0 0q-.044-.044-.059-.059h0 0q-.015-.015-.029-.015h0 0q-.029.015-.029.089h0 0q-.029.251-.118.384h0 0q-.088.133-.177.177h0 0q-.103.044-.177.03h0 0q-.088-.015-.103-.074h0 0q-.029-.044-.074-.059h0 0q-.044-.015-.088-.015h0 0q-.059 0-.103-.03h0 0q-.044-.03-.044-.103h0 0q-.088-.339-.103-.87h0 0q-.029-.531-.029-1.195h0 0q0-.575.015-1.239h0 0q.015-.664.015-1.372h0 0q0-.398 0-.797h0 0q0-.398-.029-.811h0v-.634h0q0-.811.044-1.637h0 0q.044-.826.103-1.578h0 0q.059-.752.133-1.431h0 0q.074-.664.118-1.18h0 0q.059-.502.088-.826h0 0q.029-.325.015-.413h0 0q-.015-.059.015-.089h0 0q.029-.03.074-.044h0 0q.044 0 .088-.015h0 0q.059 0 .088-.015h0 0q.074-.044.118-.03h0 0q.044.015.074.044h0 0q.029.03.059.074h0 0q.029.03.074.03h0 0q.059-.015.103-.03h0 0q.029-.03.059-.059h0 0q.029-.03.044-.044h0 0q.029-.015.074-.015h0 0q.074.03.147.03h0 0q.074 0 .074-.03h0 0q.029-.074.074-.074h0 0q.029.015.088.059h0 0q.059.044.103.103h0 0q.044.059.044.177zm7.738 5.531h0 0q.029.059.029.118h0 0q.015.059.015.148h0 0q0 .31-.339.664h0 0q-.339.354-1.061.649h0 0q-.162.059-.28.059h0 0q-.147 0-.251-.089h0 0q-.103-.074-.103-.177h0 0q0-.059.074-.133h0 0q.074-.089.162-.162h0 0q.074-.089.162-.148h0 0q.074-.074.074-.118h0 0q0-.074-.133-.074h0 0q-.206 0-.516.118h0 0q-.31.103-.663.295h0 0q-.339.192-.708.398h0 0q-.354.221-.634.428h0 0q-.28.207-.457.369h0 0q-.177.162-.177.236h0 0q0 .044.074.044h0 .295 0q.28 0 .708.03h0 0q.427.03.899.103h0 0q.472.089.943.251h0 0q.486.148.87.413h0 0q.368.266.619.634h0 0q.236.384.236.885h0 0q0 .266-.088.561h0 0q-.088.31-.295.605h0 0q-.221.31-.59.634h0 0q-.383.31-.958.634h0 0q-.855.457-1.607.679h0 0q-.752.221-1.356.221h0 0q-.796 0-1.238-.354h0 0q-.457-.354-.457-1.003h0 0q0-.487.192-.826h0 0q.177-.354.427-.575h0 0q.251-.221.516-.325h0 0q.251-.118.368-.118h0 0q.074 0 .118-.015h0 0q.044-.015.088-.015h0 0q.088 0 .088.118h0v.103h0q0 .059.029.103h0 0q.029.044.029.089h0 0q0 .059-.133.192h0 0q-.147.118-.324.28h0 0q-.177.162-.324.339h0 0q-.133.177-.133.354h0 0q0 .207.31.207h0 0q.413 0 .855-.162h0 0q.457-.162.884-.398h0 0q.427-.236.811-.546h0 0q.383-.31.678-.605h0 0q.295-.295.472-.546h0 0q.162-.266.162-.413h0 0q0-.177-.206-.295h0 0q-.206-.103-.56-.177h0 0q-.354-.074-.825-.103h0 0q-.486-.015-1.002-.015h0 0q-.545 0-.899.044h0 0q-.368.059-.442.059h0 0q-.059 0-.192-.015h0 0q-.147-.015-.28-.103h0 0q-.133-.074-.236-.221h0 0q-.103-.148-.103-.428h0 0q0-.192.088-.443h0 0q.088-.236.31-.516h0 0q.206-.28.59-.605h0 0q.383-.31.958-.664h0 0q.619-.384 1.15-.62h0 0q.545-.236.988-.369h0 0q.442-.133.766-.177h0 0q.339-.044.531-.044h0 0q.442 0 .663.118h0 0q.221.118.339.413z"/><g transform="matrix(.270955 0 0 .260353 -.315827 .172468)" fill="none" stroke-width="11.72" stroke-linecap="round" stroke-linejoin="round"><path d="M 62.146818,5.1975622 7.025606,25.133099 62.146818,45.068637 117.26803,25.133099 62.146818,5.1975622" stroke="url(#A)"/><path d="M 7.025606,45.068637 62.146818,65.004174 117.26803,45.068637" stroke="url(#A)"/><path d="M 7.025606,65.004174 62.146818,84.939711 117.26803,65.004174" stroke="url(#A)"/></g></svg>